<?xml version="1.0" ?>
<!DOCTYPE svg  PUBLIC '-//W3C//DTD SVG 1.1//EN'  'http://www.w3.org/Graphics/SVG/1.1/DTD/svg11.dtd'>
<!-- Uploaded to: SVG Repo, www.svgrepo.com, Generator: SVG Repo Mixer Tools -->
<svg fill="#000000" width="800px" height="800px" viewBox="0 0 48 48" style="fill-rule:evenodd;clip-rule:evenodd;stroke-linejoin:round;stroke-miterlimit:1.41421;" version="1.1" xml:space="preserve" xmlns="http://www.w3.org/2000/svg" xmlns:serif="http://www.serif.com/" xmlns:xlink="http://www.w3.org/1999/xlink">
<g id="play_wave_trackbar">
<g id="window">
<path d="M3.745,35.722L3.745,12.793C3.745,11.123 5.101,9.767 6.771,9.767L41.42,9.767C43.088,9.767 44.448,11.121 44.448,12.793L44.448,35.722C44.448,37.393 43.091,38.748 41.42,38.748L6.771,38.748C5.101,38.748 3.745,37.393 3.745,35.722ZM15.83,36.833L15.83,11.682L6.771,11.682C6.158,11.682 5.661,12.18 5.661,12.793L5.661,35.722C5.661,36.334 6.158,36.833 6.771,36.833L15.83,36.833ZM42.534,35.722L42.534,12.793C42.534,12.182 42.036,11.682 41.42,11.682L16.893,11.682L16.893,36.833L41.42,36.833C42.034,36.833 42.534,36.334 42.534,35.722Z" id="window1"/>
<path d="M7.107,13.606C7.107,13.099 7.52,12.687 8.026,12.687C8.533,12.687 8.944,13.099 8.944,13.606C8.944,14.11 8.533,14.523 8.026,14.523C7.52,14.523 7.107,14.11 7.107,13.606ZM9.707,13.606C9.707,13.099 10.119,12.687 10.625,12.687C11.131,12.687 11.544,13.099 11.544,13.606C11.544,14.11 11.131,14.523 10.625,14.523C10.119,14.523 9.707,14.11 9.707,13.606ZM12.306,13.606C12.306,13.099 12.718,12.687 13.223,12.687C13.729,12.687 14.142,13.099 14.142,13.606C14.142,14.11 13.729,14.523 13.223,14.523C12.718,14.523 12.306,14.11 12.306,13.606Z" id="window-actions"/>
</g>
<g id="trackbar">
<path d="M19.886,33.664C19.886,33.372 20.124,33.132 20.417,33.132L39.967,33.132C40.259,33.132 40.499,33.372 40.499,33.664C40.499,33.958 40.259,34.196 39.967,34.196L20.417,34.196C20.124,34.196 19.886,33.958 19.886,33.664Z" id="line"/>
<path d="M25.156,31.38C26.342,31.38 27.309,32.347 27.309,33.533C27.309,34.719 26.342,35.686 25.156,35.686C23.97,35.686 23.003,34.719 23.003,33.533C23.003,32.347 23.97,31.38 25.156,31.38Z" id="position"/>
</g>
<path d="M13.859,25.347L9.308,27.977C8.932,28.194 8.625,28.018 8.625,27.582L8.624,22.325C8.624,21.89 8.931,21.713 9.308,21.931L13.859,24.559C14.236,24.776 14.236,25.13 13.859,25.347Z" id="play"/>
<path d="M20.083,29.14L20.083,17.809L21.954,17.809L21.954,21.162L23.801,21.162L23.801,19.824L25.671,19.824L25.671,20.79L27.54,20.79L27.54,21.986L29.406,21.986L29.406,19.82L31.276,19.82L31.276,21.835L33.145,21.835L33.145,17.809L35.015,17.809L35.015,21.162L36.862,21.162L36.862,19.824L38.733,19.824L38.733,20.79L40.601,20.79L40.601,26.163L38.733,26.163L38.733,27.129L36.862,27.129L36.862,25.791L35.015,25.791L35.015,29.14L33.145,29.14L33.145,25.119L31.276,25.119L31.276,27.129L29.406,27.129L29.406,24.967L27.54,24.967L27.54,26.163L25.671,26.163L25.671,27.129L23.801,27.129L23.801,25.791L21.954,25.791L21.954,29.14L20.083,29.14Z" id="wave"/>
</g>
</svg>